<svg xmlns="http://www.w3.org/2000/svg" viewBox="0 0 64 64">
  <rect width="64" height="64" rx="14" fill="#FFC400" />
  <path fill="#1A1A1A" d="M30.878 6Q35.7 6 39.612 7.511Q43.524 9.022 46.337 11.8Q49.149 14.578 50.657 18.422Q52.165 22.266 52.165 26.932Q52.165 31.73 50.713 35.686Q49.261 39.643 46.568 42.484Q43.876 45.324 40.145 46.868Q36.413 48.412 31.866 48.412Q26.939 48.412 23.006 46.929Q19.074 45.445 16.301 42.655Q13.528 39.866 12.059 35.912Q10.589 31.958 10.589 27.016Q10.589 22.4 12.074 18.546Q13.559 14.692 16.272 11.891Q18.984 9.089 22.704 7.545Q26.423 6 30.878 6ZM40.091 34.286Q40.091 30.793 39.541 27.245Q38.991 23.697 37.98 20.474Q36.968 17.25 35.59 14.726Q34.213 12.202 32.552 10.743Q30.891 9.284 29.034 9.284Q27.086 9.284 25.655 10.506Q24.223 11.728 23.443 14.093Q22.663 16.458 22.663 19.873Q22.663 23.417 23.213 27.011Q23.764 30.605 24.769 33.852Q25.774 37.099 27.152 39.642Q28.531 42.185 30.194 43.657Q31.857 45.128 33.729 45.128Q35.728 45.128 37.15 43.928Q38.572 42.727 39.331 40.312Q40.091 37.897 40.091 34.286ZM32.113 37.128Q31.903 36.274 32.084 35.749Q32.265 35.224 32.829 35.064Q33.415 34.89 33.826 35.267Q34.237 35.645 34.516 36.571Q35.669 40.781 36.994 43.568Q38.318 46.355 39.892 47.973Q41.465 49.592 43.354 50.273Q45.242 50.955 47.538 50.955Q48.903 50.955 49.754 50.784Q50.605 50.612 51.174 50.363Q51.742 50.114 52.208 49.908Q52.636 49.796 52.971 49.973Q53.306 50.15 53.374 50.627Q53.443 50.893 53.383 51.222Q53.324 51.55 53.043 52.077L50.881 55.899Q50.293 57.016 49.449 57.508Q48.604 58 46.999 58Q44.446 58 42.291 56.801Q40.136 55.601 38.31 53.074Q36.485 50.547 34.95 46.586Q33.415 42.625 32.113 37.128Z" />
</svg>
